<?xml version="1.0" encoding="UTF-8"?>
<svg width="38px" height="12px" viewBox="0 0 38 12" version="1.1" xmlns="http://www.w3.org/2000/svg" xmlns:xlink="http://www.w3.org/1999/xlink">
    <title>swirl</title>
    <defs>
        <path d="M2.69937258,6.89286914 C4.78325989,4.17779343 7.37754474,2.89621026 10.6144619,2.96256673 C12.889921,3.0092134 14.6376411,3.69981367 15.9821084,4.82540189 C16.3931028,5.16948649 16.7425223,5.53611779 17.0405091,5.91456024 C17.2363906,6.16332931 17.3210497,6.2887493 17.5277224,6.61475106 C18.0644319,7.46134706 19.0989134,8.6065146 20.4409756,9.58911967 C22.5072714,11.1019801 24.9666073,12 27.7868477,12 C32.0177915,12 35.387827,10.2514107 37.7410982,6.8305352 C38.2065188,6.15396807 38.0273399,5.23363551 37.3408909,4.77491489 C36.654442,4.31619427 35.7206672,4.49279377 35.2552466,5.1693609 C33.4626927,7.77513964 31.0251783,9.03987753 27.7868477,9.03987753 C25.6525721,9.03987753 23.8066798,8.36585485 22.2319454,7.21289644 C21.2065849,6.46216785 20.4213772,5.59294556 20.0747526,5.04618614 C19.8168733,4.63941192 19.6891502,4.45019397 19.4131806,4.09971328 C18.9933518,3.56653165 18.5028978,3.05191878 17.9264681,2.56933168 C16.0698153,1.01494165 13.6640531,0.0643203308 10.6769162,0.00308433798 C6.46185192,-0.0833240365 2.96018565,1.64650781 0.304152186,5.10702696 C-0.196197321,5.75892728 -0.0656223899,6.68717129 0.595799458,7.18031799 C1.25722131,7.67346469 2.19902307,7.54476946 2.69937258,6.89286914 Z" id="path-1"></path>
    </defs>
    <g id="Page-1" stroke="none" stroke-width="1" fill="none" fill-rule="evenodd">
        <g id="Artboard" transform="translate(-95.000000, -57.000000)">
            <g id="Group" transform="translate(95.000000, 57.000000)">
                <mask id="mask-2" fill="white">
                    <use xlink:href="#path-1"></use>
                </mask>
                <use id="Color" fill="#FFAE01" xlink:href="#path-1"></use>
            </g>
        </g>
    </g>
</svg>